<?xml version="1.0" encoding="UTF-8"?>
<svg id="Layer_2" data-name="Layer 2" xmlns="http://www.w3.org/2000/svg" viewBox="0 0 620 572">
  <defs>
    <style>
      .cls-1 {
        fill: #00bdfe;
      }

      .cls-1, .cls-2, .cls-3, .cls-4, .cls-5, .cls-6, .cls-7, .cls-8, .cls-9 {
        stroke-width: 0px;
      }

      .cls-10, .cls-11 {
        fill: #fff;
      }

      .cls-2 {
        fill: #9afb96;
      }

      .cls-11, .cls-12 {
        font-family: Roboto-Medium, Roboto;
        font-size: 24px;
        font-weight: 500;
      }

      .cls-13, .cls-7 {
        fill: #21c6ff;
      }

      .cls-14 {
        font-size: 44px;
      }

      .cls-14, .cls-15 {
        font-family: Roboto-Bold, Roboto;
        font-weight: 700;
      }

      .cls-3 {
        fill: #8be1ff;
      }

      .cls-16 {
        fill: #48cc43;
        stroke: #b2fcaf;
      }

      .cls-16, .cls-17 {
        stroke-miterlimit: 10;
        stroke-width: 4px;
      }

      .cls-17 {
        fill: #000064;
        stroke: #21c6ff;
      }

      .cls-12, .cls-4 {
        fill: #59d4ff;
      }

      .cls-5 {
        fill: #84f080;
      }

      .cls-6 {
        fill: #b2fcaf;
      }

      .cls-8 {
        fill: #5ad156;
      }

      .cls-9 {
        fill: #b0ebff;
      }

      .cls-15 {
        fill: #69ff64;
        font-size: 22px;
      }
    </style>
  </defs>
  <g id="Layer_1-2" data-name="Layer 1">
    <g>
      <path class="cls-7" d="M175.33,16.09v4c39.7,0,84.97,11.93,130.91,34.51,47.49,23.34,94.47,57.54,135.84,98.92,127.11,127.11,171.2,289.83,98.29,362.75-22.99,22.99-56.18,35.14-95.97,35.14s-84.97-11.93-130.92-34.51c-47.5-23.34-94.48-57.54-135.85-98.92C50.51,290.87,6.42,128.14,79.33,55.23c22.98-22.98,56.17-35.14,95.97-35.14l.02-4M175.3,16.09c-39.73,0-74.2,11.7-98.8,36.31C1.91,126.99,45.92,291.93,174.79,420.8c86.36,86.36,188.89,134.6,269.6,134.6,39.73,0,74.2-11.7,98.8-36.31,74.59-74.59,30.59-239.53-98.29-368.4C358.55,64.33,256.01,16.08,175.3,16.09h0Z"/>
      <path class="cls-8" d="M444.44,16.07v4c39.8,0,72.98,12.15,95.97,35.14,17.62,17.62,28.76,40.73,33.11,68.69,4.24,27.28,1.89,58-6.99,91.29-8.93,33.47-24,67.81-44.78,102.07-21.56,35.54-48.35,69.41-79.62,100.69-41.38,41.38-88.35,75.58-135.85,98.92-45.95,22.58-91.22,34.51-130.92,34.51s-72.98-12.15-95.97-35.14c-17.62-17.62-28.76-40.73-33.11-68.69-4.24-27.28-1.89-58,6.99-91.29,8.93-33.47,24-67.81,44.78-102.07,21.56-35.54,48.35-69.41,79.62-100.69,41.37-41.38,88.35-75.58,135.85-98.92,45.95-22.58,91.22-34.51,130.92-34.51v-4M444.44,16.07c-80.71,0-183.25,48.25-269.6,134.6C45.97,279.54,1.96,444.48,76.55,519.07c24.61,24.61,59.06,36.31,98.8,36.31,80.71,0,183.25-48.25,269.6-134.6,128.87-128.87,172.88-293.81,98.29-368.4-24.61-24.61-59.06-36.31-98.8-36.31h0Z"/>
      <g>
        <g>
          <circle class="cls-8" cx="537" cy="58" r="56"/>
          <path class="cls-8" d="M537,4c29.78,0,54,24.22,54,54s-24.22,54-54,54-54-24.22-54-54,24.22-54,54-54M537,0c-32.03,0-58,25.97-58,58s25.97,58,58,58,58-25.97,58-58S569.03,0,537,0h0Z"/>
        </g>
        <g>
          <circle class="cls-5" cx="537" cy="58" r="48"/>
          <path class="cls-5" d="M537,12c25.36,0,46,20.64,46,46s-20.64,46-46,46-46-20.64-46-46,20.64-46,46-46M537,8c-27.61,0-50,22.39-50,50s22.39,50,50,50,50-22.39,50-50-22.39-50-50-50h0Z"/>
        </g>
        <g>
          <circle class="cls-2" cx="537" cy="58" r="40"/>
          <path class="cls-2" d="M537,20c20.95,0,38,17.05,38,38s-17.05,38-38,38-38-17.05-38-38,17.05-38,38-38M537,16c-23.2,0-42,18.8-42,42s18.8,42,42,42,42-18.8,42-42-18.8-42-42-42h0Z"/>
        </g>
        <g>
          <circle class="cls-6" cx="537" cy="58" r="32"/>
          <path class="cls-6" d="M537,28c16.54,0,30,13.46,30,30s-13.46,30-30,30-30-13.46-30-30,13.46-30,30-30M537,24c-18.78,0-34,15.22-34,34s15.22,34,34,34,34-15.22,34-34-15.22-34-34-34h0Z"/>
        </g>
      </g>
      <g>
        <g>
          <circle class="cls-8" cx="81" cy="514" r="56"/>
          <path class="cls-8" d="M81,460c29.78,0,54,24.22,54,54s-24.22,54-54,54-54-24.22-54-54,24.22-54,54-54M81,456c-32.03,0-58,25.97-58,58s25.97,58,58,58,58-25.97,58-58-25.97-58-58-58h0Z"/>
        </g>
        <g>
          <circle class="cls-5" cx="81" cy="514" r="48"/>
          <path class="cls-5" d="M81,468c25.36,0,46,20.64,46,46s-20.64,46-46,46-46-20.64-46-46,20.64-46,46-46M81,464c-27.61,0-50,22.39-50,50s22.39,50,50,50,50-22.39,50-50-22.39-50-50-50h0Z"/>
        </g>
        <g>
          <circle class="cls-2" cx="81" cy="514" r="40"/>
          <path class="cls-2" d="M81,476c20.95,0,38,17.05,38,38s-17.05,38-38,38-38-17.05-38-38,17.05-38,38-38M81,472c-23.2,0-42,18.8-42,42s18.8,42,42,42,42-18.8,42-42-18.8-42-42-42h0Z"/>
        </g>
        <g>
          <circle class="cls-6" cx="81" cy="514" r="32"/>
          <path class="cls-6" d="M81,484c16.54,0,30,13.46,30,30s-13.46,30-30,30-30-13.46-30-30,13.46-30,30-30M81,480c-18.78,0-34,15.22-34,34s15.22,34,34,34,34-15.22,34-34-15.22-34-34-34h0Z"/>
        </g>
      </g>
      <g>
        <g>
          <circle class="cls-1" cx="537" cy="514" r="56"/>
          <path class="cls-1" d="M537,460c29.78,0,54,24.22,54,54s-24.22,54-54,54-54-24.22-54-54,24.22-54,54-54M537,456c-32.03,0-58,25.97-58,58s25.97,58,58,58,58-25.97,58-58-25.97-58-58-58h0Z"/>
        </g>
        <g>
          <circle class="cls-4" cx="537" cy="514" r="48"/>
          <path class="cls-4" d="M537,468c25.36,0,46,20.64,46,46s-20.64,46-46,46-46-20.64-46-46,20.64-46,46-46M537,464c-27.61,0-50,22.39-50,50s22.39,50,50,50,50-22.39,50-50-22.39-50-50-50h0Z"/>
        </g>
        <g>
          <circle class="cls-3" cx="537" cy="514" r="40"/>
          <path class="cls-3" d="M537,476c20.95,0,38,17.05,38,38s-17.05,38-38,38-38-17.05-38-38,17.05-38,38-38M537,472c-23.2,0-42,18.8-42,42s18.8,42,42,42,42-18.8,42-42-18.8-42-42-42h0Z"/>
        </g>
        <g>
          <circle class="cls-9" cx="537" cy="514" r="32"/>
          <path class="cls-9" d="M537,484c16.54,0,30,13.46,30,30s-13.46,30-30,30-30-13.46-30-30,13.46-30,30-30M537,480c-18.78,0-34,15.22-34,34s15.22,34,34,34,34-15.22,34-34-15.22-34-34-34h0Z"/>
        </g>
      </g>
      <g>
        <g>
          <circle class="cls-1" cx="81" cy="58" r="56"/>
          <path class="cls-1" d="M81,4c29.78,0,54,24.22,54,54s-24.22,54-54,54-54-24.22-54-54S51.22,4,81,4M81,0C48.97,0,23,25.97,23,58s25.97,58,58,58,58-25.97,58-58S113.03,0,81,0h0Z"/>
        </g>
        <g>
          <circle class="cls-4" cx="81" cy="58" r="48"/>
          <path class="cls-4" d="M81,12c25.36,0,46,20.64,46,46s-20.64,46-46,46-46-20.64-46-46S55.64,12,81,12M81,8c-27.61,0-50,22.39-50,50s22.39,50,50,50,50-22.39,50-50S108.61,8,81,8h0Z"/>
        </g>
        <g>
          <circle class="cls-3" cx="81" cy="58" r="40"/>
          <path class="cls-3" d="M81,20c20.95,0,38,17.05,38,38s-17.05,38-38,38-38-17.05-38-38,17.05-38,38-38M81,16c-23.2,0-42,18.8-42,42s18.8,42,42,42,42-18.8,42-42-18.8-42-42-42h0Z"/>
        </g>
        <g>
          <circle class="cls-9" cx="81" cy="58" r="32"/>
          <path class="cls-9" d="M81,28c16.54,0,30,13.46,30,30s-13.46,30-30,30-30-13.46-30-30,13.46-30,30-30M81,24c-18.78,0-34,15.22-34,34s15.22,34,34,34,34-15.22,34-34-15.22-34-34-34h0Z"/>
        </g>
      </g>
      <rect class="cls-17" x="458.5" y="491.5" width="159" height="45" rx="7.59" ry="7.59"/>
      <rect class="cls-17" x="2" y="36" width="159" height="45" rx="7.59" ry="7.59"/>
      <rect class="cls-16" x="459" y="36" width="159" height="45" rx="7.59" ry="7.59"/>
      <rect class="cls-16" x="2" y="492" width="159" height="45" rx="7.59" ry="7.59"/>
      <text class="cls-11" transform="translate(474.95 66.65)"><tspan x="0" y="0">PORTFOLIO</tspan></text>
      <text class="cls-11" transform="translate(19.86 521.84)"><tspan x="0" y="0">CONTACTS</tspan></text>
      <text class="cls-12" transform="translate(483.76 521.91)"><tspan x="0" y="0">SERVICES</tspan></text>
      <text class="cls-12" transform="translate(21.84 66.91)"><tspan x="0" y="0">ABOUT ME</tspan></text>
      <text class="cls-14" transform="translate(138.88 289.29)"><tspan class="cls-10" x="0" y="0">Natalia</tspan><tspan x="140.04" y="0"> </tspan><tspan class="cls-13" x="150.99" y="0">Zhdanova</tspan></text>
      <text class="cls-15" transform="translate(189.63 321.05)"><tspan x="0" y="0">FULL STACK DEVELOPER</tspan></text>
      <g>
        <circle class="cls-1" cx="574" cy="380" r="18"/>
        <path class="cls-1" d="M574,364c8.82,0,16,7.18,16,16s-7.18,16-16,16-16-7.18-16-16,7.18-16,16-16M574,360c-11.05,0-20,8.95-20,20s8.95,20,20,20,20-8.95,20-20-8.95-20-20-20h0Z"/>
      </g>
    </g>
  </g>
</svg>